<svg id="Layer_1" data-name="Layer 1" xmlns="http://www.w3.org/2000/svg" viewBox="0 0 755.55 311.81"><defs><style>.cls-1,.cls-2,.cls-3,.cls-4,.cls-5,.cls-6,.cls-7,.cls-8{fill:#fff;}.cls-2,.cls-3,.cls-4,.cls-5,.cls-6,.cls-7,.cls-8{isolation:isolate;font-family:MacondoSwashCaps-Regular, Macondo Swash Caps;}.cls-2{font-size:101.54px;}.cls-3{font-size:101.36px;}.cls-4{font-size:101.62px;}.cls-5{font-size:45.13px;}.cls-6{font-size:45.1px;}.cls-7{font-size:45.14px;}.cls-8{font-size:45.13px;}</style></defs><title>Logo (white)</title><path class="cls-1" d="M287.17,157.11a69.61,69.61,0,1,0,57.63,79.82,69.61,69.61,0,0,0-57.63-79.82Zm4.61,57.31L270,211.14l13.71-17.26,13.71-17.26,8.08,20.54,7.85,20.5Zm24.14,3.16L299.49,176.7l27.7,28.45Z" transform="translate(-29.91 0)"/><text class="cls-2" transform="translate(122.1 152.4) rotate(-24.43)">T</text><text class="cls-3" transform="translate(163.07 133.3) rotate(-10.97)">a</text><text class="cls-2" transform="translate(206.64 125.48) rotate(-1.96)">B</text><text class="cls-4" transform="translate(266.88 123.41) rotate(2.29)">a</text><text class="cls-2" transform="translate(311.62 124.69) rotate(9.24)">s</text><text class="cls-2" transform="matrix(0.95, 0.31, -0.31, 0.95, 352.2, 131.43)">t</text><text class="cls-5" transform="translate(414.29 155.58) rotate(23.58)">u</text><text class="cls-5" transform="matrix(0.94, 0.35, -0.35, 0.94, 436.7, 165.53)">n</text><text class="cls-5" transform="translate(461.44 174.65) rotate(16.94)">c</text><text class="cls-6" transform="matrix(0.97, 0.24, -0.24, 0.97, 480.7, 180.5)">o</text><text class="cls-5" transform="translate(504.06 186.09) rotate(10.46)">v</text><text class="cls-5" transform="translate(526.8 190.2) rotate(7.88)">e</text><text class="cls-5" transform="translate(546.35 192.87) rotate(5.82)">r</text><text class="cls-5" transform="translate(579.54 195.85) rotate(2.6)">h</text><text class="cls-7" transform="translate(604.36 196.89) rotate(1.15)">i</text><text class="cls-5" transform="matrix(1, 0.01, -0.01, 1, 615.9, 197.18)">s</text><text class="cls-8" transform="matrix(1, -0.01, 0.01, 1, 635.77, 197.27)">t</text><text class="cls-5" transform="translate(649.19 197.16) rotate(-1.29)">o</text><text class="cls-5" transform="matrix(1, -0.03, 0.03, 1, 670.89, 196.65)">r</text><text class="cls-5" transform="translate(688.34 196.08) rotate(-2.31)">y</text><path class="cls-1" d="M50.23,86.73C129.16,43,219.61,23.43,309.69,27.57A490.63,490.63,0,0,1,441.75,51.9a446.49,446.49,0,0,1,61.38,25.21c22.73,11.38,43.94,25.75,69.48,30,14.62,2.44,29.37,3,44.15,3.44l46.81,1.56,94.61,3.1c7.31.24,13.54-6.39,13.54-13.54a13.75,13.75,0,0,0-13.54-13.56l-85.65-2.8c-27.2-.89-54.64-.83-81.78-3-11.54-.94-23.1-3.08-33.82-7.59-11.4-4.79-22-11.53-32.89-17.25a501.59,501.59,0,0,0-65.1-28.27c-88-31.13-184.51-37.12-276-19.17A502.32,502.32,0,0,0,36.54,63.35c-6.39,3.54-8.49,12.32-4.86,18.52A13.76,13.76,0,0,0,50.2,86.73Z" transform="translate(-29.91 0)"/><path class="cls-1" d="M784.71,217.22a9.08,9.08,0,0,0-10.27-5.75v-.63L631.85,221.52c-16.93.58-33.87.34-50.85-.51L478.29,205c-4.88-3.82-9.91-7.38-14.77-10.59-63.52-42-191.59-84.55-284.06-29.69h0c-14,8.39-34.37,23.52-49.56,40.85a120.26,120.26,0,0,0-10.56,13.82c-16.49,16.79-33,33.71-49.49,50.44a14.36,14.36,0,0,0-6.24,6.85c-2.06,4.24,1.67,8,5.79,8a303.29,303.29,0,0,1,65.8,5.42c4.9,1.82,9.81,3.64,14.72,5.4a5.68,5.68,0,0,0,3.17.25q24.61,8.64,62.6,12.76a630.31,630.31,0,0,0,66.7,3.28,806.35,806.35,0,0,0,97.13-5.88c34.36-4.25,64-10.46,85.67-18,14.28-4.94,25-10.41,32.33-16.5a376.82,376.82,0,0,1,76.16-23l202.41-15.17v-.44a5.31,5.31,0,0,0,4.61-1.94C784,227.16,786.85,222.36,784.71,217.22Zm-426.07,72.1a638.91,638.91,0,0,1-77,4.66,499.41,499.41,0,0,1-52.85-2.6c-47.64-5.15-75.54-17.12-82.92-35.58-3.63-9.08-4-24.44,14.92-46,12.06-13.69,28.22-25.69,39.31-32.37h0c73.26-43.47,174.74-9.75,225.07,23.52,17.74,11.73,38.42,29.26,36.16,46.16-1.52,11.26-12.92,20.41-34.84,28-17.15,5.92-40.64,10.84-67.85,14.21Z" transform="translate(-29.91 0)"/></svg>